# xmcd
#
# Track frame offsets: 
#        150
#        21207
#        35692
#        50347
#
# Disc length: 803 seconds
#
# Revision: 0
# Processed by: cddbd v1.5.2PL0 Copyright (c) Steve Scherf et al.
# Submitted via: ExactAudioCopy v0.99pb4
#
DISCID=2c032104
DTITLE=Eric Clapton - Pretending(Single)
DYEAR=1989
DGENRE=Rock
TTITLE0=Pretending
TTITLE1=Hard Times
TTITLE2=Knock on Wood
TTITLE3=Behind the Sun
EXTD=
EXTT0=
EXTT1=
EXTT2=
EXTT3=
PLAYORDER=
